{"accessors":[{"bufferView":0,"byteOffset":0,"componentType":5126,"count":4,"max":[0.06538463151211857,0.01,0.009970372757479692],"min":[0.00076919898427812,0.0,0.004985183908344425],"type":"VEC3"},{"bufferView":0,"byteOffset":48,"componentType":5126,"count":30,"max":[0.000769198984557017,0.01,0.009970372757479692],"min":[-0.01,0.0,-0.009970372757458197],"type":"VEC3"},{"bufferView":0,"byteOffset":408,"componentType":5126,"count":4,"max":[0.06538463151187037,0.01,-0.004985183908363576],"min":[0.000769198984557017,0.0,-0.009970372757458197],"type":"VEC3"},{"bufferView":0,"byteOffset":456,"componentType":5126,"count":28,"max":[0.06996702712717958,0.01,0.004985183908344425],"min":[0.06538463151187037,0.0,-0.004985183908363576],"type":"VEC3"},{"bufferView":0,"byteOffset":792,"componentType":5126,"count":29,"max":[0.06996702712717958,0.0,0.009970372757479692],"min":[-0.01,0.0,-0.009970372757458197],"type":"VEC3"},{"bufferView":0,"byteOffset":1140,"componentType":5126,"count":29,"max":[0.06996702712717958,0.01,0.009970372757479692],"min":[-0.01,0.01,-0.009970372757458197],"type":"VEC3"},{"bufferView":1,"byteOffset":0,"componentType":5126,"count":4,"type":"VEC3"},{"bufferView":1,"byteOffset":48,"componentType":5126,"count":30,"type":"VEC3"},{"bufferView":1,"byteOffset":408,"componentType":5126,"count":4,"type":"VEC3"},{"bufferView":1,"byteOffset":456,"componentType":5126,"count":28,"type":"VEC3"},{"bufferView":1,"byteOffset":792,"componentType":5126,"count":29,"type":"VEC3"},{"bufferView":1,"byteOffset":1140,"componentType":5126,"count":29,"type":"VEC3"},{"bufferView":2,"byteOffset":0,"componentType":5123,"count":6,"type":"SCALAR"},{"bufferView":2,"byteOffset":12,"componentType":5123,"count":84,"type":"SCALAR"},{"bufferView":2,"byteOffset":180,"componentType":5123,"count":6,"type":"SCALAR"},{"bufferView":2,"byteOffset":192,"componentType":5123,"count":78,"type":"SCALAR"},{"bufferView":2,"byteOffset":348,"componentType":5123,"count":81,"type":"SCALAR"},{"bufferView":2,"byteOffset":512,"componentType":5123,"count":81,"type":"SCALAR"}],"asset":{"generator":"Open CASCADE Technology 7.7 [dev.opencascade.org]","version":"2.0"},"bufferViews":[{"buffer":0,"byteLength":1488,"byteOffset":0,"byteStride":12,"target":34962},{"buffer":0,"byteLength":1488,"byteOffset":1488,"byteStride":12,"target":34962},{"buffer":0,"byteLength":676,"byteOffset":2976,"target":34963}],"buffers":[{"byteLength":3652,"uri":"flipper.bin"}],"materials":[{"name":"mat_0","pbrMetallicRoughness":{"baseColorFactor":[0.6038273572921753,0.6038273572921753,0.6038273572921753,1.0]},"doubleSided":true}],"meshes":[{"name":"Body","primitives":[{"attributes":{"NORMAL":6,"POSITION":0},"indices":12,"material":0,"mode":4},{"attributes":{"NORMAL":7,"POSITION":1},"indices":13,"material":0,"mode":4},{"attributes":{"NORMAL":8,"POSITION":2},"indices":14,"material":0,"mode":4},{"attributes":{"NORMAL":9,"POSITION":3},"indices":15,"material":0,"mode":4},{"attributes":{"NORMAL":10,"POSITION":4},"indices":16,"material":0,"mode":4},{"attributes":{"NORMAL":11,"POSITION":5},"indices":17,"material":0,"mode":4}]}],"nodes":[{"mesh":0,"name":"Body"}],"scene":0,"scenes":[{"nodes":[0]}]}